<svg xmlns="http://www.w3.org/2000/svg" width="800" height="600" viewBox="0 0 800 600">
  <rect width="800" height="600" fill="#F0EBE3"/>
  <rect x="16" y="16" width="768" height="568" rx="8" fill="none" stroke="#C9A96E" stroke-width="2" opacity="0.2"/>
  <!-- Simple produce icon (leaf/vegetable) -->
  <g transform="translate(400, 255)" opacity="0.15">
    <path d="M0,-40 C20,-40 35,-25 35,0 C35,25 20,45 0,45 C-20,45 -35,25 -35,0 C-35,-25 -20,-40 0,-40Z" fill="none" stroke="#C9A96E" stroke-width="2.5"/>
    <path d="M0,-40 C0,-15 0,15 0,45" fill="none" stroke="#C9A96E" stroke-width="2" stroke-linecap="round"/>
    <path d="M0,0 C-15,-10 -25,-5 -30,5" fill="none" stroke="#C9A96E" stroke-width="2" stroke-linecap="round"/>
    <path d="M0,-15 C12,-22 22,-18 28,-10" fill="none" stroke="#C9A96E" stroke-width="2" stroke-linecap="round"/>
  </g>
  <text x="400" y="350" text-anchor="middle" dominant-baseline="central" font-family="Georgia, serif" font-size="28" fill="#C9A96E" opacity="0.5" letter-spacing="0.08em">Seasonal Produce</text>
  <text x="400" y="385" text-anchor="middle" dominant-baseline="central" font-family="sans-serif" font-size="14" fill="#C9A96E" opacity="0.3" letter-spacing="0.05em">800 x 600</text>
</svg>
